<svg width="16" height="16" xmlns="http://www.w3.org/2000/svg" class="bi bi-cloud-rain-fill" fill="currentColor">

 <g>
  <title>Layer 1</title>
  <path fill="#ffffff" id="svg_1" d="m4.158,12.025a0.5,0.5 0 0 1 0.316,0.633l-0.5,1.5a0.5,0.5 0 1 1 -0.948,-0.316l0.5,-1.5a0.5,0.5 0 0 1 0.632,-0.317zm3,0a0.5,0.5 0 0 1 0.316,0.633l-1,3a0.5,0.5 0 1 1 -0.948,-0.316l1,-3a0.5,0.5 0 0 1 0.632,-0.317zm3,0a0.5,0.5 0 0 1 0.316,0.633l-0.5,1.5a0.5,0.5 0 1 1 -0.948,-0.316l0.5,-1.5a0.5,0.5 0 0 1 0.632,-0.317zm3,0a0.5,0.5 0 0 1 0.316,0.633l-1,3a0.5,0.5 0 1 1 -0.948,-0.316l1,-3a0.5,0.5 0 0 1 0.632,-0.317zm0.247,-6.998a5.001,5.001 0 0 0 -9.499,-1.004a3.5,3.5 0 1 0 -0.406,6.977l9.5,0a3,3 0 0 0 0.405,-5.973z"/>
 </g>
</svg>