<svg width="16" height="16" xmlns="http://www.w3.org/2000/svg" class="bi bi-speedometer" fill="currentColor">

 <g>
  <title>Layer 1</title>
  <path fill="#ffffff" id="svg_1" d="m8,2a0.5,0.5 0 0 1 0.5,0.5l0,1.5a0.5,0.5 0 0 1 -1,0l0,-1.5a0.5,0.5 0 0 1 0.5,-0.5zm-4.268,1.732a0.5,0.5 0 0 1 0.707,0l0.915,0.914a0.5,0.5 0 1 1 -0.708,0.708l-0.914,-0.915a0.5,0.5 0 0 1 0,-0.707zm-1.732,4.268a0.5,0.5 0 0 1 0.5,-0.5l1.586,0a0.5,0.5 0 0 1 0,1l-1.586,0a0.5,0.5 0 0 1 -0.5,-0.5zm9.5,0a0.5,0.5 0 0 1 0.5,-0.5l1.5,0a0.5,0.5 0 0 1 0,1l-1.5,0a0.5,0.5 0 0 1 -0.5,-0.5zm0.754,-4.246a0.389,0.389 0 0 0 -0.527,-0.02l-4.18,3.576a0.91,0.91 0 1 0 1.303,1.259l3.434,-4.297a0.389,0.389 0 0 0 -0.029,-0.518l-0.001,0z"/>
  <path fill="#ffffff" id="svg_2" d="m6.664,15.889a8,8 0 1 1 2.672,-15.779a8,8 0 0 1 -2.672,15.78l0,-0.001zm-4.665,-4.283a11.945,11.945 0 0 1 6.001,-1.606c2.186,0 4.236,0.585 6.001,1.606a7,7 0 1 0 -12.002,0z" fill-rule="evenodd"/>
 </g>
</svg>